# xmcd
#
# Track frame offsets:
#	150
#	11372
#	26205
#	37635
#	49610
#	62497
#	72897
#	83822
#	96097
#	105947
#	117372
#	128935
#
# Disc length: 1860 seconds
#
# Revision: 2
# Processed by: cddbd v1.5.2PL0 Copyright (c) Steve Scherf et al.
# Submitted via: audiograbber 1.83.01
#
DISCID=8b07420c
DTITLE=Various Artist - Classic Country Memories
DYEAR=1992
DGENRE=Country
TTITLE0=Webb Pierce - More and More
TTITLE1=Webb Pierce - Wondering
TTITLE2=Charlie Walker - My Shoes Keep Walking Back To You
TTITLE3=Charlie Walker - Who Will Buy The Wine?
TTITLE4=Leroy Van Dyke - The Auctioneer
TTITLE5=Leroy Van Dyke - Walk On By
TTITLE6=Jimmy C. Newman - A Fallen Star
TTITLE7=Jimmy C. Newman - Cry, Cry Darlin' 
TTITLE8=Ned Miller - From A Jack To A King
TTITLE9=Ned Miller - Do What You Do Well
TTITLE10=Hank Locklin - Send Me The Pillow You Dream On
TTITLE11=Hank Locklin - Please Help Me I'm Fallin' 
EXTD=
EXTT0=
EXTT1=
EXTT2=
EXTT3=
EXTT4=
EXTT5=
EXTT6=
EXTT7=
EXTT8=
EXTT9=
EXTT10=
EXTT11=
PLAYORDER=
